# This file uses centimeters as units for non-parametric coordinates.

mtllib TestBlock_B.mtl
v 0.000000 -0.006049 4.000000
v 0.000000 4.000000 4.000000
v 4.000000 4.000000 4.000000
v 0.000000 4.000000 -0.000000
v 4.000000 4.000000 -0.000000
v 0.000000 0.000000 -0.000000
v 0.000000 1.956915 4.000000
v 0.000000 2.000000 -0.000000
v 0.000000 2.800000 -0.000000
v 0.000000 2.798185 4.000000
v 2.000000 4.000000 -0.000000
v 2.000000 4.000000 4.000000
v 0.000000 4.000000 2.000000
v 4.000000 4.000000 2.000000
v 0.000000 0.000000 2.000000
v 0.000000 2.000000 2.000000
v -0.420305 2.184680 0.369359
v -0.184044 2.184680 2.000000
v 0.006847 2.836936 1.714204
v -0.420305 2.836936 0.369359
v 0.006847 3.815320 2.000000
v -0.420305 3.815320 0.624190
v -0.184044 2.184680 3.630640
v -0.420305 2.836936 3.230007
v -0.420305 3.815320 3.630640
v 2.000000 4.342122 0.396179
v 2.000000 4.342122 2.000000
v 3.603822 4.115173 2.000000
v 3.603822 4.342122 0.396179
v 0.396178 4.173525 2.000000
v 0.396178 4.325900 0.396179
v 0.396178 4.342122 3.603820
v 2.000000 4.100714 3.603820
v 3.603822 4.342122 3.603820
v 2.000000 -0.006049 4.000000
v 4.000000 -0.006049 4.000000
v 4.000000 2.832769 4.000000
v 4.000000 1.981124 4.000000
v 2.000000 1.964063 4.425886
v 0.808799 1.964063 4.425886
v 0.356840 0.351331 4.601556
v 2.000000 0.351331 4.601556
v 3.643160 1.983953 4.425886
v 3.643160 0.351331 4.601556
v 2.000000 3.876001 4.319294
v 3.643160 3.876001 4.319294
v 2.000000 2.655233 4.422095
v 3.643160 2.683647 4.601556
v 0.356840 3.876001 4.319294
v 0.356840 2.655233 4.601556
v -0.336277 0.244864 2.391632
v -0.336277 1.753650 2.391632
v -0.336277 0.240301 3.521677
v -0.336277 1.338842 3.521677
vt 0.378671 0.002954
vt 0.375000 0.250000
vt 0.625000 0.250000
vt 0.375000 0.500000
vt 0.625000 0.500000
vt 0.125000 0.000000
vt 0.125000 0.250000
vt 0.380016 0.125152
vt 0.250000 0.375000
vt 0.250000 0.375000
vt 0.376018 0.175295
vt 0.500000 0.500000
vt 0.500000 0.250000
vt 0.250000 0.250000
vt 0.375000 0.375000
vt 0.500000 0.375000
vt 0.625000 0.375000
vt 0.250000 0.000000
vt 0.250000 0.125000
vt 0.250000 0.175000
vt 0.125000 0.125000
vt 0.250000 0.125000
vt 0.125000 0.175000
vt 0.250000 0.250000
vt 0.125000 0.250000
vt 0.375000 0.125000
vt 0.375000 0.175000
vt 0.375000 0.250000
vt 0.625000 0.375000
vt 0.625000 0.500000
vt 0.500000 0.500000
vt 0.375000 0.500000
vt 0.375000 0.375000
vt 0.375000 0.250000
vt 0.500000 0.250000
vt 0.625000 0.250000
vt 0.000000 0.000000
vt 1.000000 0.000000
vt 0.999944 0.999975
vt 0.000000 1.000000
vt 0.000000 0.000000
vt 1.000000 0.000000
vt 1.000000 1.000000
vt 0.000000 1.000000
vt 0.000000 0.291367
vt 1.000000 0.300000
vt 0.000000 0.300000
vt 0.999968 0.299999
vt 0.000000 0.503957
vt 1.000000 0.510000
vt 0.000000 0.510000
vt 0.999942 0.510000
vt 0.999942 0.510000
vt 0.999944 0.999975
vt 0.000000 1.000000
vt 1.000000 1.000000
vt 0.000000 1.000000
vt 0.000000 0.503957
vt 0.000000 0.000000
vt 1.000000 0.000000
vt 0.000000 0.291367
vt 0.000000 0.000000
vt 1.000000 0.000000
vt 0.999968 0.299999
vt 0.250000 0.125000
vt 0.250000 0.000000
vt 0.378671 0.002954
vt 0.380016 0.125152
vn 0.006555 0.998235 0.059024
vn 0.007830 0.999304 0.036481
vn 0.033081 0.998746 0.037583
vn 0.070401 0.995031 0.070401
vn -0.958792 0.187135 0.213772
vn -0.999982 0.004966 -0.003430
vn -0.997536 0.028301 0.064197
vn -0.964118 0.042215 0.262095
vn -1.000000 0.000000 0.000000
vn -1.000000 0.000000 0.000000
vn -1.000000 0.000000 0.000000
vn -1.000000 0.000000 0.000000
vn -0.998411 0.026320 -0.049826
vn -0.950818 -0.082489 0.298563
vn -0.017460 0.999232 0.035079
vn -0.057458 0.997223 0.047372
vn 0.022688 0.999485 0.022687
vn 0.009094 0.999866 0.013602
vn -0.004508 0.999980 0.004508
vn -1.000000 0.000000 0.000000
vn -1.000000 0.000000 0.000000
vn -1.000000 0.000000 0.000000
vn -1.000000 0.000000 0.000000
vn -0.985467 -0.104670 -0.133784
vn -0.977259 0.013373 -0.211627
vn -0.961009 0.091532 -0.260927
vn -0.506462 -0.861632 0.032958
vn -0.506462 -0.861632 0.032958
vn -0.506462 -0.861632 0.032958
vn -0.506462 -0.861632 0.032958
vn -0.598310 0.797680 0.075706
vn -0.598310 0.797680 0.075706
vn -0.598310 0.797680 0.075706
vn -0.598310 0.797680 0.075706
vn -0.766735 0.074589 -0.637616
vn -0.766735 0.074589 -0.637616
vn -0.766735 0.074589 -0.637616
vn -0.766735 0.074589 -0.637616
vn -0.742517 -0.669780 -0.007948
vn -0.742517 -0.669780 -0.007948
vn -0.742517 -0.669780 -0.007948
vn -0.742517 -0.669780 -0.007948
vn -0.884765 -0.015013 0.465796
vn -0.884765 -0.015013 0.465796
vn -0.884765 -0.015013 0.465796
vn -0.884765 -0.015013 0.465796
vn -0.793007 -0.110105 0.599180
vn -0.793007 -0.110105 0.599180
vn -0.793007 -0.110105 0.599180
vn -0.793007 -0.110105 0.599180
vn -0.626948 0.775561 -0.073761
vn -0.626948 0.775561 -0.073761
vn -0.626948 0.775561 -0.073761
vn -0.626948 0.775561 -0.073761
vn 0.519150 0.852994 0.053717
vn 0.519150 0.852994 0.053717
vn 0.519150 0.852994 0.053717
vn 0.519150 0.852994 0.053717
vn 0.000000 0.756854 -0.653584
vn 0.000000 0.756854 -0.653584
vn 0.000000 0.756854 -0.653584
vn 0.000000 0.756854 -0.653584
vn -0.003445 0.765387 -0.643561
vn -0.003445 0.765388 -0.643561
vn -0.003445 0.765388 -0.643561
vn -0.003445 0.765388 -0.643561
vn -0.545497 0.837365 0.035405
vn -0.545497 0.837365 0.035405
vn -0.545497 0.837365 0.035405
vn -0.545497 0.837365 0.035405
vn 0.057538 0.858948 0.508821
vn 0.057538 0.858948 0.508821
vn 0.057538 0.858948 0.508821
vn 0.057538 0.858948 0.508821
vn -0.558579 0.828545 -0.038762
vn -0.558579 0.828545 -0.038762
vn -0.558579 0.828545 -0.038762
vn -0.558579 0.828545 -0.038762
vn -0.057538 0.858948 0.508821
vn -0.057538 0.858948 0.508821
vn -0.057538 0.858947 0.508821
vn -0.057538 0.858948 0.508821
vn 0.519150 0.852994 -0.053717
vn 0.519150 0.852994 -0.053717
vn 0.519150 0.852994 -0.053717
vn 0.519150 0.852994 -0.053717
vn -0.660116 0.000000 -0.751164
vn -0.660116 0.000000 -0.751164
vn -0.660116 0.000000 -0.751164
vn -0.660116 0.000000 -0.751164
vn 0.018972 0.045104 0.998802
vn 0.020994 0.038342 0.999044
vn 0.000000 0.108287 0.994120
vn 0.000000 0.108287 0.994120
vn -0.016449 0.037937 0.999145
vn -0.016114 0.039419 0.999093
vn -0.000651 0.107631 0.994191
vn -0.000651 0.107631 0.994191
vn -0.055205 0.157336 0.986001
vn -0.055205 0.157336 0.986001
vn -0.054644 0.054849 0.996998
vn -0.054664 0.057338 0.996857
vn 0.053864 0.155561 0.986357
vn 0.053864 0.155561 0.986357
vn 0.056323 0.095227 0.993861
vn 0.057210 0.072013 0.995762
vn -0.677430 0.121270 0.725522
vn -0.677430 0.121270 0.725522
vn -0.677430 0.121270 0.725522
vn -0.677430 0.121270 0.725522
vn 0.000000 -0.859726 0.510755
vn 0.000000 -0.859726 0.510755
vn 0.000000 -0.859726 0.510755
vn 0.000000 -0.859726 0.510755
vn 0.000000 -0.859726 0.510755
vn 0.000000 -0.859726 0.510755
vn 0.000000 -0.859726 0.510755
vn 0.000000 -0.859726 0.510755
vn 0.825465 0.027361 0.563789
vn 0.825465 0.027361 0.563789
vn 0.825465 0.027361 0.563789
vn 0.825465 0.027361 0.563789
vn 0.000000 0.932173 0.362013
vn 0.000000 0.932173 0.362013
vn 0.000000 0.932173 0.362013
vn 0.000000 0.932173 0.362013
vn 0.777345 0.074719 0.624621
vn 0.777345 0.074719 0.624621
vn 0.777345 0.074719 0.624621
vn 0.777345 0.074719 0.624621
vn 0.000000 0.932173 0.362012
vn 0.000000 0.932173 0.362012
vn 0.000000 0.932173 0.362012
vn 0.000000 0.932173 0.362012
vn -0.777999 0.072709 0.624044
vn -0.777999 0.072709 0.624044
vn -0.777999 0.072709 0.624044
vn -0.777999 0.072709 0.624044
vn 0.823864 -0.063774 0.563188
vn 0.823864 -0.063774 0.563188
vn 0.823864 -0.063774 0.563188
vn 0.823864 -0.063774 0.563188
vn -0.653740 -0.273680 0.705496
vn -0.653740 -0.273680 0.705496
vn -0.653740 -0.273680 0.705496
vn -0.653740 -0.273680 0.705496
vn -0.758689 0.000000 -0.651453
vn -0.758689 0.000000 -0.651453
vn -0.758689 0.000000 -0.651453
vn -0.758689 0.000000 -0.651453
vn -0.589574 -0.807709 -0.002738
vn -0.589574 -0.807709 -0.002738
vn -0.589574 -0.807709 -0.002738
vn -0.589574 -0.807709 -0.002738
vn -0.818064 0.000000 0.575127
vn -0.818064 0.000000 0.575127
vn -0.818064 0.000000 0.575127
vn -0.818064 0.000000 0.575127
vn -0.790434 0.606096 0.088666
vn -0.790434 0.606096 0.088666
vn -0.790434 0.606096 0.088666
vn -0.790434 0.606096 0.088666
s 1
usemtl lambert8SG
f 26/31/1 27/16/2 28/29/3 29/30/4
s 2
f 17/21/5 18/22/6 19/20/7 20/23/8
s off
usemtl lambert9SG
f 6/6/9 15/18/10 16/19/11 8/9/12
s 2
usemtl lambert8SG
f 20/23/8 19/20/7 21/24/13 22/25/14
s 1
f 30/33/15 27/16/2 26/31/1 31/32/16
f 32/34/17 33/35/18 27/16/2 30/33/15
f 28/29/3 27/16/2 33/35/18 34/36/19
s off
f 52/65/20 51/66/21 53/67/22 54/68/23
s 2
f 19/20/7 18/22/6 23/26/24 24/27/25
f 21/24/13 19/20/7 24/27/25 25/28/26
s off
f 8/9/27 16/19/28 18/22/29 17/21/30
f 13/14/31 4/7/32 22/25/33 21/24/34
f 4/7/35 9/10/36 20/23/37 22/25/38
f 16/19/39 7/8/40 23/26/41 18/22/42
f 7/8/43 10/11/44 24/27/45 23/26/46
f 10/11/47 2/2/48 25/28/49 24/27/50
f 2/2/51 13/14/52 21/24/53 25/28/54
f 14/17/55 5/5/56 29/30/57 28/29/58
f 5/5/59 11/12/60 26/31/61 29/30/62
f 11/12/63 4/4/64 31/32/65 26/31/66
f 4/4/67 13/15/68 30/33/69 31/32/70
f 2/2/71 12/13/72 33/35/73 32/34/74
f 13/15/75 2/2/76 32/34/77 30/33/78
f 12/13/79 3/3/80 34/36/81 33/35/82
f 3/3/83 14/17/84 28/29/85 34/36/86
f 9/10/87 8/9/88 17/21/89 20/23/90
s 3
f 39/51/91 40/53/92 41/54/93 42/55/94
s 4
f 43/58/95 39/50/96 42/56/97 44/57/98
f 46/59/99 45/60/100 47/46/101 48/61/102
s 3
f 45/62/103 49/63/104 50/64/105 47/47/106
s 4
f 48/61/102 47/46/101 39/50/96 43/58/95
s 3
f 47/47/106 50/64/105 40/53/92 39/51/91
s off
f 7/52/107 1/39/108 41/54/109 40/53/110
f 1/39/111 35/40/112 42/55/113 41/54/114
f 35/43/115 36/44/116 44/57/117 42/56/118
f 36/44/119 38/49/120 43/58/121 44/57/122
f 3/41/123 12/42/124 45/60/125 46/59/126
f 37/45/127 3/41/128 46/59/129 48/61/130
f 12/37/131 2/38/132 49/63/133 45/62/134
f 2/38/135 10/48/136 50/64/137 49/63/138
f 38/49/139 37/45/140 48/61/141 43/58/142
f 10/48/143 7/52/144 40/53/145 50/64/146
f 16/19/147 15/18/148 51/66/149 52/65/150
f 15/18/151 1/1/152 53/67/153 51/66/154
f 1/1/155 7/8/156 54/68/157 53/67/158
f 7/8/159 16/19/160 52/65/161 54/68/162
